<svg xmlns="http://www.w3.org/2000/svg" width="267.80759mm" height="72.643028mm" viewBox="0 0 267.80759 72.643028"><path d="M88.893 116.686c-3.38 0-6.122 1.01-6.122 2.255 0 1.244 2.741 2.253 6.122 2.253 1.551 0 2.968-.212 4.047-.563 1.271-.412 2.074-1.017 2.074-1.69 0-1.245-2.74-2.255-6.121-2.255zm0 3.78c-2.2 0-3.983-.683-3.983-1.525 0-.843 1.784-1.526 3.983-1.526s3.981.683 3.981 1.526c0 .485-.591.917-1.514 1.197-.679.206-1.535.328-2.467.328M95.509 121.712h-12.92v.858h5.693v.247l.002 2.315 1.96.007v-2.57h5.265v-.858" style="fill:#000;fill-opacity:1;fill-rule:nonzero;stroke:none;stroke-width:.0352778" transform="matrix(2.55845 0 0 2.55845 -81.151 -271.128)"/><path d="M94.922 127.232H84.354c-1.017 0-.984-.72-.984-.72l-.004-2.12c0-.205-.154-.3-.257-.363 0 0-.128-.054-.128-.16 0-.126.105-.167.19-.167h2.158v2.658h9.593v.872M75.463 122.39c-3.186 0-5.769 1.173-5.769 2.62 0 1.446 2.583 2.62 5.769 2.62 1.462 0 2.797-.248 3.813-.655 1.2-.48 1.956-1.183 1.956-1.965 0-1.447-2.583-2.62-5.77-2.62zm0 4.418c-2.07 0-3.747-.806-3.747-1.798 0-.993 1.678-1.798 3.747-1.798s3.747.805 3.747 1.798c0 .572-.557 1.082-1.425 1.411-.638.242-1.445.387-2.322.387" style="fill:#000;fill-opacity:1;fill-rule:nonzero;stroke:none;stroke-width:.0352778" transform="matrix(2.55845 0 0 2.55845 -81.151 -271.128)"/><path d="M79.037 117.028c-.086 0-.19.04-.19.167 0 .106.127.16.127.16.103.062.292.158.292.363v1.56h-1.805v.868h1.805v4.725h1.965v-7.842h-2.194" style="fill:#000;fill-opacity:1;fill-rule:nonzero;stroke:none;stroke-width:.0352778" transform="matrix(2.55845 0 0 2.55845 -81.151 -271.128)"/><path d="M74.45 118.26h3.353v-.86H74.44v-1.094h-2.154c-.086 0-.19.04-.19.167 0 .105.127.16.127.16.103.061.257.157.257.362v.406h-3.314v.853h3.207c0 2.297-3.404 3.105-3.404 3.105v.937s2.894-.475 4.484-2.429c1.501 1.954 4.711 2.429 4.711 2.429v-.937s-3.539-.732-3.714-3.1M106.746 117.718c0-.205-.17-.3-.273-.362 0 0-.128-.055-.128-.161 0-.127.105-.166.19-.166h2.172v10.181h-1.964v-5.107h-1.178v5.107h-1.962v-.993c-.496.281-1.053.288-1.053.288h-5.033c-1.018 0-.987-.72-.987-.72v-7.696c0-.205-.155-.3-.258-.362 0 0-.128-.054-.128-.16 0-.126.105-.166.19-.166h5.803l.002.87h-3.647v7.361h3.875c.888 0 1.236-.47 1.236-.47l-.005-7.444c0-.205-.186-.3-.29-.362 0 0-.127-.055-.127-.161 0-.127.104-.167.19-.167h2.193v4.207h1.182v-3.517M125.833 121.45c0-.205-.155-.3-.258-.361 0 0-.128-.055-.128-.161 0-.126.105-.166.19-.166h2.158v4.884h8.6v.86h-12.92v-.86h2.358v-4.196" style="fill:#000;fill-opacity:1;fill-rule:nonzero;stroke:none;stroke-width:.0352778" transform="matrix(2.55845 0 0 2.55845 -81.151 -271.128)"/><path d="M129.363 125.646v-3.951l-.002-.245c0-.205-.153-.3-.257-.361 0 0-.128-.055-.128-.161 0-.126.105-.166.19-.166h2.158v4.884" style="fill:#000;fill-opacity:1;fill-rule:nonzero;stroke:none;stroke-width:.0352778" transform="matrix(2.55845 0 0 2.55845 -81.151 -271.128)"/><path d="M135.59 123.831v-5.845c0-.666-.71-.588-.71-.588h-10.657v.956h9.342v5.642s-.033 1.667-.915 1.765h2.254s.686-.852.686-1.93M120.001 117.801l-.002-.083c0-.206-.186-.3-.288-.363 0 0-.129-.054-.129-.16 0-.127.105-.167.19-.167h2.194v2.3h1.622v.869h-1.621v2.792h-1.959l-.007-5.188M120.005 121.105v-.011M120.007 118.05v-.01M120.021 127.234v-2.84h-9.856v-.85h11.818v3.69h-1.962M114.407 117.783c-2.495 0-4.518 1.195-4.518 2.669 0 1.473 2.023 2.669 4.518 2.669 1.146 0 2.191-.253 2.988-.667.939-.49 1.53-1.205 1.53-2.002 0-1.474-2.022-2.67-4.518-2.67zm0 4.576c-1.456 0-2.637-.854-2.637-1.907 0-1.054 1.181-1.908 2.637-1.908 1.457 0 2.637.854 2.637 1.908 0 .607-.392 1.187-1.003 1.548-.449.266-1.017.359-1.634.359" style="fill:#000;fill-opacity:1;fill-rule:nonzero;stroke:none;stroke-width:.0352778" transform="matrix(2.55845 0 0 2.55845 -81.151 -271.128)"/><path d="M113.39 117.04c0-.205-.155-.3-.257-.361 0 0-.129-.055-.129-.162 0-.125.105-.165.19-.165h2.158v1.049h3.501v.858h-9.098v-.858h3.636l-.002-.361M71.761 131.408c-.075-.452-.426-.677-.844-.677-.76 0-.922.634-.922 1.06 0 .426.161 1.06.922 1.06.39 0 .766-.199.844-.695h.873c-.1.915-.807 1.295-1.746 1.295-1.075 0-1.746-.495-1.746-1.66s.67-1.66 1.746-1.66c.712 0 1.617.194 1.738 1.277h-.865M73.019 130.22h.802v1.182h1.658v-1.182h.802v3.143h-.802v-1.36H73.82v1.36h-.802v-3.143M76.81 130.22h.803v1.803c0 .309.013.828.75.828.74 0 .752-.52.752-.828v-1.803h.802v2.015c0 .352-.041 1.216-1.553 1.216-1.511 0-1.553-.864-1.553-1.216v-2.015M82.936 130.22h.779v3.141h-.874l-1.607-2.191h-.009v2.191h-.778v-3.141h.932l1.549 2.19h.008v-2.19M86.143 131.617h1.506v1.746h-.408l-.107-.367c-.281.323-.727.455-1.239.455-1.075 0-1.746-.495-1.746-1.655 0-.976.63-1.665 1.746-1.665.818 0 1.592.256 1.737 1.122h-.895c-.12-.406-.462-.522-.751-.522-.727 0-.983.575-.983 1.065 0 .486.256 1.055.983 1.055.437 0 .776-.175.871-.692h-.714v-.542M87.754 130.22h.802l.57 2.289h.008l.604-2.29h.802l.604 2.29h.008l.57-2.29h.803l-.935 3.143h-.827l-.62-2.235h-.008l-.62 2.235h-.827l-.934-3.142M93.481 131.79c0-.487.257-1.059.986-1.059s.986.572.986 1.06c0 .488-.257 1.06-.986 1.06s-.986-.572-.986-1.06zm-.853 0c0 .657.249 1.661 1.839 1.661 1.59 0 1.838-1.004 1.838-1.66 0-.655-.248-1.66-1.838-1.66s-1.839 1.005-1.839 1.66M97.385 131.79c0-.487.257-1.059.986-1.059s.985.572.985 1.06c0 .488-.256 1.06-.985 1.06s-.986-.572-.986-1.06zm-.853 0c0 .657.249 1.661 1.839 1.661 1.59 0 1.838-1.004 1.838-1.66 0-.655-.248-1.66-1.838-1.66s-1.839 1.005-1.839 1.66M103.097 130.22h.778v3.141h-.874l-1.606-2.191h-.01v2.191h-.778v-3.141h.932l1.55 2.19h.007v-2.19M106.057 130.22h.802v1.803c0 .309.013.828.752.828.738 0 .75-.52.75-.828v-1.803h.802v2.015c0 .352-.04 1.216-1.552 1.216s-1.554-.864-1.554-1.216v-2.015M112.183 130.22h.779v3.141h-.875l-1.607-2.191h-.008v2.191h-.778v-3.141h.931l1.55 2.19h.008v-2.19M114.562 130.22h.88l.855 2.393.855-2.393h.88l-1.309 3.142h-.852l-1.309-3.142M118.29 130.22h2.759v.6h-1.956v.648h1.856v.572h-1.856v.722h1.972v.6h-2.776v-3.142M122.374 130.82h1.02c.191 0 .422.08.422.39 0 .294-.206.4-.383.4h-1.059zm-.802 2.543h.802v-1.153h.993c.249 0 .426.11.426.55 0 .33.004.457.08.603h.875c-.14-.159-.153-.528-.153-.682 0-.308-.053-.784-.404-.841v-.01c.333-.127.48-.373.48-.755 0-.32-.138-.855-.958-.855h-2.14v3.143M127.242 131.128c-.05-.411-.419-.455-.742-.455-.33 0-.545.159-.545.37 0 .168.132.261.339.296l1.005.172c.536.093.945.31.945.883 0 .587-.371 1.057-1.534 1.057-.72 0-1.654-.096-1.661-1.078h.899c.008.432.414.507.764.507.376 0 .633-.119.633-.393 0-.243-.182-.31-.5-.362l-.733-.12c-.514-.083-1.01-.246-1.01-.89 0-.7.537-.985 1.465-.985.608 0 1.508.11 1.561.998h-.886M128.677 130.22h.802v3.143h-.802v-3.143M130.915 130.82h-1.095v-.6h2.994v.6h-1.096v2.543h-.803v-2.542M134.205 132.267l-1.307-2.047h.943l.765 1.369.766-1.37h.942l-1.307 2.048v1.096h-.802v-1.096" style="fill:#000;fill-opacity:1;fill-rule:nonzero;stroke:none;stroke-width:.0352778" transform="matrix(2.55845 0 0 2.55845 -81.151 -271.128)"/><path d="M73.821 130.472v-.066c0-.057.048-.082.08-.1 0 0 .04-.014.04-.043 0-.034-.032-.045-.06-.045h-.674v.25M77.61 130.472v-.066c0-.057.049-.082.08-.1 0 0 .04-.014.04-.043 0-.034-.032-.045-.059-.045h-.674v.25M83.723 130.472v-.066c0-.057.049-.082.08-.1 0 0 .04-.014.04-.043 0-.034-.032-.045-.059-.045h-.674v.25M103.866 130.472v-.066c0-.057.049-.082.081-.1 0 0 .04-.014.04-.043 0-.034-.033-.045-.06-.045h-.674v.25M106.853 130.472v-.066c0-.057.05-.082.08-.1 0 0 .041-.014.041-.043 0-.034-.033-.045-.06-.045h-.674v.25M112.956 130.472v-.066c0-.057.048-.082.08-.1 0 0 .04-.014.04-.043 0-.034-.032-.045-.059-.045h-.674v.25M121.049 130.474v-.067c0-.056.048-.082.08-.1 0 0 .04-.014.04-.042 0-.035-.033-.045-.06-.045h-.674v.25M129.476 130.472v-.066c0-.057.048-.082.08-.1 0 0 .04-.014.04-.043 0-.034-.033-.045-.06-.045h-.675v.25M113.466 130.22h.802v3.143h-.802v-3.143" style="fill:#000;fill-opacity:1;fill-rule:nonzero;stroke:none;stroke-width:.0352778" transform="matrix(2.55845 0 0 2.55845 -81.151 -271.128)"/><path d="M114.265 130.472v-.066c0-.057.048-.082.08-.1 0 0 .04-.014.04-.043 0-.034-.033-.045-.06-.045h-.673v.25" style="fill:#000;fill-opacity:1;fill-rule:nonzero;stroke:none;stroke-width:.0352778" transform="matrix(2.55845 0 0 2.55845 -81.151 -271.128)"/><path d="m31.719 120.17 17.238 14.196 17.237-14.196-17.237-14.197-17.238 14.197" style="fill:#33b540;fill-opacity:1;fill-rule:nonzero;stroke:none;stroke-width:.0352778" transform="matrix(2.55845 0 0 2.55845 -81.151 -271.128)"/><path d="m31.719 120.17 17.238 14.196 17.237-14.196-17.237-14.197s-4.232 10.534-17.238 14.197" style="fill:#2056ae;fill-opacity:1;fill-rule:nonzero;stroke:none;stroke-width:.0352778" transform="matrix(2.55845 0 0 2.55845 -81.151 -271.128)"/><path d="M31.723 120.17s10.021 1.81 15.791-7.645c0 0-5.676 7.176-15.791 7.646" style="fill:#bdbcbc;fill-opacity:1;fill-rule:nonzero;stroke:none;stroke-width:.0352778" transform="matrix(2.55845 0 0 2.55845 -81.151 -271.128)"/><path d="M45.908 119.93c-.043-.249-.258-1.004-1.236-1.004-1.105 0-1.46.956-1.46 1.874 0 .918.355 1.874 1.46 1.874.795 0 1.107-.497 1.247-1.137h2.32c0 1.376-1.257 2.839-3.502 2.839-2.481 0-3.888-1.558-3.888-3.576 0-2.151 1.525-3.576 3.888-3.576 2.105.01 3.265.995 3.47 2.706h-2.3M56.685 117.37h.951v4.346c0 1.388 1.086 1.993 2.107 1.993 1.065 0 2.162-.673 2.162-2.076v-4.263h.896v4.304c0 1.057-.742 2.816-3.058 2.816-2.406 0-3.058-1.644-3.058-2.68v-4.44" style="fill:#bdbcbc;fill-opacity:1;fill-rule:nonzero;stroke:none;stroke-width:.0352778" transform="matrix(2.55845 0 0 2.55845 -81.151 -271.128)"/><path d="M47.596 117.37h1.483l1.07 4.71 1.028-4.71h1.865l1.089 4.71 1.165-4.71h1.389l-1.78 6.9h-1.576l-1.197-5.114-1.182 5.113h-1.575l-1.78-6.899" style="fill:#bdbcbc;fill-opacity:1;fill-rule:nonzero;stroke:none;stroke-width:.0352778" transform="matrix(2.55845 0 0 2.55845 -81.151 -271.128)"/></svg>